<?xml version="1.0" encoding="utf-8"?>
<!-- Generator: Adobe Illustrator 25.2.1, SVG Export Plug-In . SVG Version: 6.00 Build 0)  -->
<svg version="1.1" id="Capa_1" xmlns="http://www.w3.org/2000/svg" xmlns:xlink="http://www.w3.org/1999/xlink" x="0px" y="0px"
	 viewBox="0 0 80 35" style="enable-background:new 0 0 80 35;" xml:space="preserve">
<style type="text/css">
	.st0{fill:#FFF;}
</style>
<g>
	<path class="st0" d="M70.6,21.2c-1.3,0.7-2.6,1.3-3.8,2c-0.7,0.4-1.1,1.1-1.1,1.9c0,1.5-0.1,3,0,4.4c0.1,1.4,1.2,2.3,2.5,2.3
		c1.4,0,2.4-1,2.4-2.4c0-2.6,0-5.3,0-7.9C70.6,21.5,70.6,21.4,70.6,21.2 M65.7,15.8h-3.1c0-1.2,0-2.3,0-3.5c0-1,0.5-2,1.1-2.8
		c1.3-1.6,3-2.1,4.9-2c1.6,0.1,2.9,0.7,4,2c0.7,0.8,1.1,1.8,1.1,2.9c0.1,5.6,0.1,11.2,0.1,16.8c0,0.6-0.1,1.3-0.3,1.9
		c-0.5,1.8-1.7,2.9-3.4,3.5c-1.7,0.5-3.3,0.5-4.9-0.4c-1.6-0.8-2.5-2.2-2.6-4c-0.1-1.6-0.1-3.2-0.1-4.8c0.1-2.6,1.4-4.3,3.6-5.4
		c1.4-0.7,2.8-1.3,4.2-2c0.1-0.1,0.3-0.3,0.3-0.5c0-1.5,0-3,0-4.4c0-1.5-1.1-2.5-2.4-2.5c-1.4,0-2.4,0.9-2.5,2.4
		C65.6,13.9,65.7,14.8,65.7,15.8 M49.5,34h-3.1c0-0.2,0-0.3,0-0.5c0-6.7,0-13.5,0-20.2c0-1.4,0.3-2.7,1.2-3.8c1.3-1.6,3.1-2.1,5.1-2
		c1.4,0.1,2.6,0.6,3.5,1.6c1.1,1.1,1.5,2.6,1.5,4.1c0,6.8,0,13.6,0,20.4c0,0.1,0,0.1,0,0.2h-3.2v-0.6c0-6.7,0-13.3,0-20
		c0-1-0.3-1.9-1.2-2.5c-1.8-1.1-3.8,0.1-3.8,2.3c0,0.5,0,1,0,1.5C49.5,14.7,49.5,34,49.5,34z M21.4,8.5h3.2c0,0.2,0,0.4,0,0.5
		c0,6.7,0,13.3,0,20c0,1.6-0.3,3.1-1.5,4.2c-1,1-2.1,1.5-3.4,1.6c-1.3,0.1-2.5,0-3.7-0.6c-1.6-0.8-2.5-2.1-2.7-3.9
		c-0.1-0.7-0.1-1.4-0.1-2.1c0-6.4,0-12.8,0-19.2V8.5h3.1v0.6c0,6.6,0,13.3,0,19.9c0,1,0.2,1.9,1,2.5c0.9,0.6,1.8,0.7,2.7,0.2
		c0.9-0.4,1.3-1.2,1.3-2.2c0-6.8,0-13.5,0-20.3C21.4,9.2,21.4,8.5,21.4,8.5z M30.3,8.5h3.1v0.6c0,6.6,0,13.3,0,19.9
		c0,1,0.2,1.9,1,2.5c0.9,0.6,1.8,0.7,2.7,0.2c0.9-0.4,1.3-1.2,1.3-2.2c0-6.8,0-13.5,0-20.3V8.5h3.2c0,0.2,0,0.4,0,0.5
		c0,6.7,0,13.3,0,20c0,1.6-0.3,3.1-1.5,4.3c-0.9,1-2.1,1.5-3.4,1.6c-1.3,0.1-2.5,0-3.7-0.6c-1.6-0.8-2.5-2.1-2.7-3.9
		c-0.1-0.7-0.1-1.4-0.1-2.1c0-6.4,0-12.8,0-19.2C30.3,9.1,30.3,8.5,30.3,8.5z M3.4,31h7v3H0V0h3.4V31z M79.4,3.8
		c0,1-0.8,1.9-1.9,1.9c0,0,0,0,0,0c-1,0-1.9-0.9-1.9-1.9c0,0,0,0,0,0c0-1,0.8-1.9,1.9-1.9C78.6,1.9,79.4,2.7,79.4,3.8"/>
</g>
</svg>
