<?xml version="1.0" encoding="utf-8"?>
<!-- Generator: Adobe Illustrator 21.0.2, SVG Export Plug-In . SVG Version: 6.00 Build 0)  -->
<svg version="1.1" id="Layer_1" xmlns="http://www.w3.org/2000/svg" xmlns:xlink="http://www.w3.org/1999/xlink" x="0px" y="0px"
	 viewBox="0 0 300 100" style="enable-background:new 0 0 300 100;" xml:space="preserve">
<style type="text/css">
	.st0{fill:#FFFFFF;}
</style>
<g>
	<path class="st0" d="M65.2,25.5c-5.5,0-10.7-0.2-15.8,0.1c-3.4,0.1-4.9,1.8-5.8,5.1c-0.2,1-0.5,1.9-0.7,2.9c-0.2,0-0.4,0-0.5-0.1
		C42.2,33.2,42,33,42,32.8c0.2-2.9,0.4-5.8,0.7-8.7c0-0.4,0.7-1.1,1.1-1.1c10,0,19.9,0,29.9,0c0,0,0.1,0.1,0.4,0.3
		C64.9,36.4,55.8,49.5,46.4,63c1,0.1,1.7,0.1,2.3,0.1c4.9,0,9.7,0,14.6,0c5.7,0,7.9-1.5,10-6.9c0.3-0.7,0.5-1.3,0.8-2
		c0.2,0,0.4,0,0.5,0.1c0.1,0.4,0.2,0.8,0.1,1.2c-0.5,2.9-1.1,5.9-1.6,8.8c-0.2,1-0.6,1.4-1.6,1.4c-10.7,0-21.4,0-32.1,0
		c-0.4,0-0.9-0.3-1.3-0.4c0.2-0.6,0.4-1.3,0.7-1.8c4.3-6.1,8.6-12.2,12.9-18.3c4.2-6,8.5-12,12.7-18C64.7,26.7,64.9,26.2,65.2,25.5z
		"/>
	<path class="st0" d="M229.4,66.3c0-0.5-0.1-1.1-0.1-1.6c0-0.5-0.1-1.1-0.1-1.9c-0.5,0.4-0.9,0.6-1.2,0.9
		c-5.5,4.5-12.2,3.5-16.4-2.3c-5.1-7.2-2.3-19.7,5.4-24c3.7-2,7.6-2.3,11.3,0.1c0.2,0.1,0.4,0.2,0.7,0.3c0-3.7,0.1-7.4,0-11
		c0-1.4-1.1-2-2.5-1.8c-0.5,0.1-1.1,0.1-1.7,0.2c0.4-1.4,7.4-4.4,9.6-4.1c0,0.8,0,1.5,0,2.3c0,10.6,0,21.3,0,31.9c0,1.5,0,3,0.2,4.5
		c0.3,2.3,1,2.8,3.4,2.5c0.2,0,0.5-0.1,0.7,0c0.1,0,0.2,0.1,0.3,0.2C238.3,63.8,231.6,66.6,229.4,66.3z M229.3,52.4
		c0-2.2,0.1-4.4,0-6.5c-0.1-1.2-0.3-2.4-0.6-3.5c-0.9-2.5-2.6-4.1-5.2-4.5c-2.5-0.4-4.4,0.8-6,2.7c-3.6,4.4-3.6,14.3-0.1,18.8
		c1.4,1.8,3,3.2,5.3,3.6c3.8,0.6,6.7-1.7,6.7-5.5C229.3,55.8,229.3,54.1,229.3,52.4z"/>
	<path class="st0" d="M100.7,24.5c0.4-0.2,0.8-0.5,1.3-0.7c2.1-0.9,4.1-1.7,6.2-2.5c2.1-0.8,2.4-0.6,2.4,1.6c0,5.3,0,10.7,0,16
		c0,0.7,0,1.3,0,2c0.3,0.2,0.6,0.4,0.9,0.7c0.2-0.5,0.3-1.1,0.6-1.5c6-7,14-4.2,17.2,2.6c3.8,7.9,0.7,18-7,22.3
		c-5.6,3.1-11.8,1.4-16.2-1.6c-0.5-0.3-0.7-1.4-0.7-2.1c0-9.6,0-19.3,0-28.9c0-1.5,0-3-0.2-4.5c-0.2-2.4-0.9-2.9-3.2-2.7
		c-0.4,0-0.9,0-1.3,0C100.8,24.9,100.7,24.7,100.7,24.5z M110.6,52.3c0,2.5,0,5,0,7.5c0,0.6,0.2,1.4,0.6,1.8c3.6,3.9,9,3.6,11.8-0.9
		c3.1-5,3.2-10.5,0.8-15.7c-2.5-5.3-7.7-6.1-12-2.3c-0.6,0.6-1.1,1.6-1.2,2.5C110.5,47.6,110.6,50,110.6,52.3z"/>
	<path class="st0" d="M192.5,65.4c-4.7,0-9.3,0-14,0c0-0.2-0.1-0.3-0.1-0.5c0.4-0.1,0.8-0.4,1.2-0.4c2.1-0.2,3-1.4,3-3.3
		c0.1-3,0.1-6,0.1-9c0-3,0-6-0.1-9c-0.1-2.8-0.7-3.2-3.6-3c-0.3,0-0.6-0.2-1.3-0.3c0.6-0.4,0.9-0.7,1.2-0.9c2.3-1,4.6-1.9,6.9-2.8
		c1.4-0.6,2.1-0.3,2,1.4c-0.1,1.2,0,2.4,0,4.2c0.8-0.7,1.2-1.1,1.6-1.4c1.4-1.1,2.7-2.4,4.2-3.3c4.4-2.6,9.2-0.7,10.7,4.2
		c0.5,1.6,0.6,3.4,0.7,5.2c0.1,4.5,0,9.1,0.1,13.6c0.1,3.5,0.3,3.7,3.7,4.6c0.2,0,0.3,0.2,0.4,0.3c-0.9,1-12.5,1.1-14.4,0
		c0.8-0.2,1.4-0.3,1.9-0.4c1.8-0.2,2.9-1.3,2.9-3c0-5.7,0.2-11.3-0.2-17c-0.2-4.4-3.5-6-7.4-4c-1.3,0.6-2.4,1.6-3.4,2.5
		c-0.5,0.4-0.9,1.3-0.9,1.9c-0.1,5.1-0.1,10.2,0,15.3c0.1,3.3,0.5,3.7,3.8,4.3c0.3,0.1,0.5,0.2,0.8,0.3
		C192.6,65.1,192.5,65.3,192.5,65.4z"/>
	<path class="st0" d="M168.5,61.8c-1,0.7-1.9,1.5-2.8,2c-1.7,0.9-3.5,2-5.4,2.4c-2.9,0.6-5.3-0.6-6.7-3.2c-1.4-2.7-1.7-5.7,0.3-8.1
		c1.5-1.7,3.5-3.2,5.5-4.3c2.5-1.4,5.4-2.3,8-3.5c0.6-0.3,1.2-1.1,1.2-1.7c0.1-1.3-0.1-2.8-0.4-4c-0.9-3-4.7-4.5-7.3-2.7
		c-0.9,0.6-1.4,2-2,3.1c-0.1,0.2,0,0.6,0,0.9c0,1.4,0,2.9-1.6,3.4c-0.8,0.2-1.9,0.1-2.6-0.4c-1.3-0.9-1.3-2.5-0.8-3.9
		c0.9-2.7,3-4.2,5.6-5.1c3-0.9,6-0.9,9-0.1c3.2,0.8,5,2.7,5.1,6c0.2,4.5,0.1,9.1,0.2,13.6c0,1.4,0,2.9,0.1,4.3
		c0.2,2,1.4,2.4,2.9,1.2c0.5-0.4,1-0.9,1.7-1.4c0.1,0.5,0.2,0.7,0.2,1c-0.4,2.5-5.1,5.7-7.5,4.9c-0.9-0.3-1.6-1.4-2.2-2.2
		C168.7,63.4,168.7,62.7,168.5,61.8z M168.7,48.5c-3.7,1.4-7.3,2.5-9.7,5.5c-1.6,1.9-1.4,5.1,0.2,6.9c1.7,1.9,3.8,2.2,6.4,0.7
		c0.8-0.5,1.6-0.9,2.3-1.5c0.4-0.3,0.8-0.9,0.9-1.3C168.7,55.5,168.7,52.2,168.7,48.5z"/>
	<path class="st0" d="M101.1,54.9c0.1,0.4,0.2,0.8,0.2,1.2c-1,7.7-9.2,12.5-16.3,9.5c-4.5-2-7-5.7-7.7-10.5
		c-0.7-5.2-0.4-10.2,3.1-14.5c4.7-5.9,14-6.3,18.4-0.7c1.3,1.6,1.8,3.8,2.4,5.7c0.5,1.5-0.1,2.1-1.8,2.1c-5.3-0.1-10.7,0-16.1-0.1
		c-1.7,0-2.1,0.6-1.9,2.2c0.4,3.8,1.6,7.1,4.7,9.6c4.6,3.7,10.7,2.4,13.4-2.9c0.3-0.6,0.6-1.1,0.9-1.7
		C100.8,54.8,101,54.9,101.1,54.9z M81.6,45.7c4.4,0,8.7,0,13.1,0c0.2-2.7-0.5-4.9-2.7-6.4c-2.1-1.4-4.2-1.6-6.5-0.4
		C83,40.4,81.8,42.6,81.6,45.7z"/>
	<path class="st0" d="M258.1,35.3c0,3.9,0,7.1,0,10.3c-0.2,0-0.4,0.1-0.5,0.1c-0.3-0.7-0.6-1.5-0.9-2.2c-1.4-4-3.9-5.9-7.5-5.8
		c-2,0.1-3.7,0.9-4.5,2.8c-0.7,1.6,0,3.8,1.9,5c2.5,1.5,5.2,2.7,7.7,4.2c1.4,0.8,2.9,1.7,4.1,2.9c4,4.3,2.2,10.9-3.6,13.2
		c-2.9,1.1-5.7,0.7-8.6,0.2c-1.5-0.3-3.1-0.3-5-0.4c0-2.9,0-6.2,0-9.5c0.2-0.1,0.3-0.1,0.5-0.2c0.3,0.6,0.6,1.2,0.8,1.8
		c1.1,3.3,3,5.9,6.5,6.8c3,0.8,5.6-0.2,6.6-2.4c1-2.2,0.1-4.8-2.6-6.5c-2.8-1.7-5.7-3.2-8.6-4.9c-3.1-1.9-4-4.8-3.3-8.2
		c0.6-3.2,3.1-5.7,6.4-6.2c1.7-0.2,3.6-0.1,5.3,0.2C254.5,36.7,256.3,37.9,258.1,35.3z"/>
	<path class="st0" d="M277.6,79.2c0.5-0.6,0.6-1,0.9-1.2c5.7-3.6,8.4-9,9.6-15.4c1.7-9,1.5-17.9-0.5-26.8c-1.2-5.3-4.1-9.5-8.4-12.8
		c-0.5-0.4-0.9-0.9-1.2-1.5c8.3,2.4,17.2,14.2,17.4,28.2C295.5,65.2,285.4,76.9,277.6,79.2z"/>
	<path class="st0" d="M22.2,78.7C13.8,76.3,4.7,64.5,4.7,50c0-15.3,10.2-26.8,17.8-28.9c-0.5,0.7-0.8,1.2-1.1,1.4
		c-4.8,3.1-7.5,7.7-8.9,13.1c-2.5,10.1-2.3,20.1,0.4,30.1c1.2,4.7,3.9,8.4,7.7,11.4C21.1,77.6,21.7,78.2,22.2,78.7z"/>
	<path class="st0" d="M131.1,65c0.5-0.2,0.8-0.4,1.1-0.5c3.1-0.7,3.6-1.2,3.6-4.4c0-5.5,0-10.9-0.1-16.4c-0.1-3.3-0.5-3.6-3.9-3.5
		c-0.2,0-0.4-0.1-0.9-0.3c0.5-0.4,0.7-0.7,1-0.9c2.3-1,4.7-1.9,7.1-2.9c1.3-0.5,2-0.3,1.9,1.3c-0.1,1.3,0,2.6,0.4,4
		c0.7-0.9,1.4-2,2.2-2.8c1-1,2.1-2,3.4-2.5c1-0.4,2.5-0.2,3.6,0.2c1.7,0.6,2.4,2.8,1.6,4.2c-0.8,1.6-2.4,1.9-4.2,1.1
		c-1.1-0.6-2.3-2.5-3.5-1.3c-1.5,1.5-3.1,3.5-3.4,5.5c-0.5,4.5-0.2,9.1-0.1,13.6c0.1,3.3,0.9,4.1,4.2,4.9c0.3,0.1,0.5,0.2,0.8,0.4
		C144.9,65.9,133,66,131.1,65z"/>
	<path class="st0" d="M92.5,26.9c0,1.9-1.6,3.4-3.5,3.4c-1.9,0-3.4-1.5-3.3-3.5c0-1.9,1.4-3.3,3.3-3.3C90.9,23.6,92.5,25,92.5,26.9z
		"/>
</g>
</svg>
